<mxfile host="Electron" agent="Mozilla/5.0 (Macintosh; Intel Mac OS X 10_15_7) AppleWebKit/537.36 (KHTML, like Gecko) draw.io/24.7.8 Chrome/128.0.6613.36 Electron/32.0.1 Safari/537.36" version="24.7.8">
  <diagram name="Страница — 1" id="Gk90YNgwEayLAzb57u5I">
    <mxGraphModel dx="1114" dy="1142" grid="1" gridSize="10" guides="1" tooltips="1" connect="1" arrows="1" fold="1" page="1" pageScale="1" pageWidth="827" pageHeight="1169" math="0" shadow="0">
      <root>
        <mxCell id="0" />
        <mxCell id="1" parent="0" />
        <mxCell id="Om2m70K_sdcKimeB2fOS-6" value="" style="edgeStyle=orthogonalEdgeStyle;rounded=0;orthogonalLoop=1;jettySize=auto;html=1;" parent="1" source="Om2m70K_sdcKimeB2fOS-1" target="Om2m70K_sdcKimeB2fOS-4" edge="1">
          <mxGeometry relative="1" as="geometry" />
        </mxCell>
        <mxCell id="Om2m70K_sdcKimeB2fOS-1" value="" style="ellipse;whiteSpace=wrap;html=1;" parent="1" vertex="1">
          <mxGeometry x="240" y="60" width="160" height="50" as="geometry" />
        </mxCell>
        <mxCell id="Om2m70K_sdcKimeB2fOS-2" value="&lt;font style=&quot;font-size: 14px;&quot;&gt;Start&lt;/font&gt;" style="text;html=1;align=center;verticalAlign=middle;resizable=0;points=[];autosize=1;strokeColor=none;fillColor=none;" parent="1" vertex="1">
          <mxGeometry x="295" y="70" width="50" height="30" as="geometry" />
        </mxCell>
        <mxCell id="Om2m70K_sdcKimeB2fOS-4" value="" style="rounded=0;whiteSpace=wrap;html=1;" parent="1" vertex="1">
          <mxGeometry x="240" y="150" width="160" height="80" as="geometry" />
        </mxCell>
        <mxCell id="Om2m70K_sdcKimeB2fOS-9" value="" style="edgeStyle=orthogonalEdgeStyle;rounded=0;orthogonalLoop=1;jettySize=auto;html=1;" parent="1" source="Om2m70K_sdcKimeB2fOS-7" target="Om2m70K_sdcKimeB2fOS-8" edge="1">
          <mxGeometry relative="1" as="geometry" />
        </mxCell>
        <mxCell id="Om2m70K_sdcKimeB2fOS-7" value="&lt;span style=&quot;background-color: initial; font-size: 14px;&quot;&gt;&lt;font style=&quot;font-size: 14px;&quot;&gt;Array1[ ]&lt;/font&gt;&lt;/span&gt;&lt;div style=&quot;font-size: 14px;&quot;&gt;&lt;font style=&quot;font-size: 14px;&quot;&gt;Array2 [ ]&lt;/font&gt;&lt;/div&gt;&lt;div style=&quot;font-size: 14px;&quot;&gt;&lt;font style=&quot;font-size: 14px;&quot;&gt;index = 0&lt;/font&gt;&lt;/div&gt;&lt;div style=&quot;font-size: 14px;&quot;&gt;&lt;font style=&quot;font-size: 14px;&quot;&gt;count = 0&lt;/font&gt;&lt;/div&gt;" style="text;html=1;align=center;verticalAlign=middle;resizable=0;points=[];autosize=1;strokeColor=none;fillColor=none;" parent="1" vertex="1">
          <mxGeometry x="280" y="150" width="80" height="80" as="geometry" />
        </mxCell>
        <mxCell id="Om2m70K_sdcKimeB2fOS-14" value="" style="edgeStyle=orthogonalEdgeStyle;rounded=0;orthogonalLoop=1;jettySize=auto;html=1;entryX=0.5;entryY=0;entryDx=0;entryDy=0;" parent="1" source="Om2m70K_sdcKimeB2fOS-8" target="Om2m70K_sdcKimeB2fOS-11" edge="1">
          <mxGeometry relative="1" as="geometry" />
        </mxCell>
        <mxCell id="Om2m70K_sdcKimeB2fOS-32" style="edgeStyle=orthogonalEdgeStyle;rounded=0;orthogonalLoop=1;jettySize=auto;html=1;entryX=0.5;entryY=0;entryDx=0;entryDy=0;" parent="1" source="Om2m70K_sdcKimeB2fOS-8" target="Om2m70K_sdcKimeB2fOS-28" edge="1">
          <mxGeometry relative="1" as="geometry" />
        </mxCell>
        <mxCell id="Om2m70K_sdcKimeB2fOS-8" value="" style="shape=hexagon;perimeter=hexagonPerimeter2;whiteSpace=wrap;html=1;fixedSize=1;" parent="1" vertex="1">
          <mxGeometry x="180" y="270" width="280" height="80" as="geometry" />
        </mxCell>
        <mxCell id="Om2m70K_sdcKimeB2fOS-10" value="&lt;font style=&quot;font-size: 14px;&quot;&gt;index = 0; Array1.Length; index++&lt;/font&gt;" style="text;html=1;align=center;verticalAlign=middle;resizable=0;points=[];autosize=1;strokeColor=none;fillColor=none;" parent="1" vertex="1">
          <mxGeometry x="205" y="295" width="230" height="30" as="geometry" />
        </mxCell>
        <mxCell id="Om2m70K_sdcKimeB2fOS-17" style="edgeStyle=orthogonalEdgeStyle;rounded=0;orthogonalLoop=1;jettySize=auto;html=1;entryX=0;entryY=0.5;entryDx=0;entryDy=0;exitX=0;exitY=0.5;exitDx=0;exitDy=0;" parent="1" source="Om2m70K_sdcKimeB2fOS-11" target="Om2m70K_sdcKimeB2fOS-8" edge="1">
          <mxGeometry relative="1" as="geometry">
            <mxPoint x="120" y="310" as="targetPoint" />
            <Array as="points">
              <mxPoint x="120" y="430" />
              <mxPoint x="120" y="310" />
            </Array>
          </mxGeometry>
        </mxCell>
        <mxCell id="Om2m70K_sdcKimeB2fOS-21" value="" style="edgeStyle=orthogonalEdgeStyle;rounded=0;orthogonalLoop=1;jettySize=auto;html=1;entryX=0.5;entryY=0;entryDx=0;entryDy=0;" parent="1" source="Om2m70K_sdcKimeB2fOS-11" target="Om2m70K_sdcKimeB2fOS-19" edge="1">
          <mxGeometry relative="1" as="geometry" />
        </mxCell>
        <mxCell id="Om2m70K_sdcKimeB2fOS-11" value="" style="rhombus;whiteSpace=wrap;html=1;" parent="1" vertex="1">
          <mxGeometry x="200" y="390" width="240" height="80" as="geometry" />
        </mxCell>
        <mxCell id="Om2m70K_sdcKimeB2fOS-12" value="&lt;font style=&quot;font-size: 14px;&quot;&gt;Array1 [index].Length &amp;lt;= 3&lt;/font&gt;" style="text;html=1;align=center;verticalAlign=middle;resizable=0;points=[];autosize=1;strokeColor=none;fillColor=none;" parent="1" vertex="1">
          <mxGeometry x="220" y="415" width="190" height="30" as="geometry" />
        </mxCell>
        <mxCell id="Om2m70K_sdcKimeB2fOS-18" value="&lt;font style=&quot;font-size: 14px;&quot;&gt;No&lt;/font&gt;" style="text;html=1;align=center;verticalAlign=middle;resizable=0;points=[];autosize=1;strokeColor=none;fillColor=none;" parent="1" vertex="1">
          <mxGeometry x="150" y="400" width="40" height="30" as="geometry" />
        </mxCell>
        <mxCell id="Om2m70K_sdcKimeB2fOS-22" style="edgeStyle=orthogonalEdgeStyle;rounded=0;orthogonalLoop=1;jettySize=auto;html=1;exitX=0.5;exitY=0;exitDx=0;exitDy=0;" parent="1" source="Om2m70K_sdcKimeB2fOS-19" edge="1">
          <mxGeometry relative="1" as="geometry">
            <mxPoint x="320.185185185185" y="509.92592592592587" as="targetPoint" />
          </mxGeometry>
        </mxCell>
        <mxCell id="Om2m70K_sdcKimeB2fOS-23" style="edgeStyle=orthogonalEdgeStyle;rounded=0;orthogonalLoop=1;jettySize=auto;html=1;" parent="1" source="Om2m70K_sdcKimeB2fOS-19" edge="1">
          <mxGeometry relative="1" as="geometry">
            <mxPoint x="120" y="430" as="targetPoint" />
            <Array as="points">
              <mxPoint x="320" y="610" />
              <mxPoint x="120" y="610" />
            </Array>
          </mxGeometry>
        </mxCell>
        <mxCell id="Om2m70K_sdcKimeB2fOS-19" value="" style="rounded=0;whiteSpace=wrap;html=1;" parent="1" vertex="1">
          <mxGeometry x="200" y="510" width="240" height="60" as="geometry" />
        </mxCell>
        <mxCell id="Om2m70K_sdcKimeB2fOS-20" value="&lt;font style=&quot;font-size: 14px;&quot;&gt;Array2 [count] = Array1 [index]&lt;/font&gt;&lt;div&gt;&lt;font style=&quot;font-size: 14px;&quot;&gt;count++&lt;/font&gt;&lt;/div&gt;" style="text;html=1;align=center;verticalAlign=middle;resizable=0;points=[];autosize=1;strokeColor=none;fillColor=none;" parent="1" vertex="1">
          <mxGeometry x="215" y="515" width="210" height="50" as="geometry" />
        </mxCell>
        <mxCell id="Om2m70K_sdcKimeB2fOS-24" value="&lt;font style=&quot;font-size: 14px;&quot;&gt;Yes&lt;/font&gt;" style="text;html=1;align=center;verticalAlign=middle;resizable=0;points=[];autosize=1;strokeColor=none;fillColor=none;" parent="1" vertex="1">
          <mxGeometry x="320" y="470" width="50" height="30" as="geometry" />
        </mxCell>
        <mxCell id="Om2m70K_sdcKimeB2fOS-35" value="" style="edgeStyle=orthogonalEdgeStyle;rounded=0;orthogonalLoop=1;jettySize=auto;html=1;entryX=0.5;entryY=0;entryDx=0;entryDy=0;" parent="1" source="Om2m70K_sdcKimeB2fOS-28" target="Om2m70K_sdcKimeB2fOS-33" edge="1">
          <mxGeometry relative="1" as="geometry" />
        </mxCell>
        <mxCell id="Om2m70K_sdcKimeB2fOS-28" value="" style="shape=document;whiteSpace=wrap;html=1;boundedLbl=1;" parent="1" vertex="1">
          <mxGeometry x="560" y="385" width="160" height="80" as="geometry" />
        </mxCell>
        <mxCell id="Om2m70K_sdcKimeB2fOS-31" value="&lt;font style=&quot;font-size: 14px;&quot;&gt;Print Array2 [ ]&lt;/font&gt;" style="text;html=1;align=center;verticalAlign=middle;resizable=0;points=[];autosize=1;strokeColor=none;fillColor=none;" parent="1" vertex="1">
          <mxGeometry x="585" y="400" width="110" height="30" as="geometry" />
        </mxCell>
        <mxCell id="Om2m70K_sdcKimeB2fOS-33" value="" style="ellipse;whiteSpace=wrap;html=1;" parent="1" vertex="1">
          <mxGeometry x="560" y="520" width="160" height="50" as="geometry" />
        </mxCell>
        <mxCell id="Om2m70K_sdcKimeB2fOS-34" value="&lt;font style=&quot;font-size: 14px;&quot;&gt;Finish&lt;/font&gt;" style="text;html=1;align=center;verticalAlign=middle;resizable=0;points=[];autosize=1;strokeColor=none;fillColor=none;" parent="1" vertex="1">
          <mxGeometry x="610" y="530" width="60" height="30" as="geometry" />
        </mxCell>
      </root>
    </mxGraphModel>
  </diagram>
</mxfile>
